<svg width="41" height="41" viewBox="0 0 41 41" fill="none" xmlns="http://www.w3.org/2000/svg">
<g clip-path="url(#clip0_13_215)">
<path d="M38.4375 35.875H2.5625V38.4375H38.4375V35.875Z" fill="black"/>
<path d="M31.3906 14.0938H10.25C9.57059 14.0944 8.9192 14.3646 8.43879 14.845C7.95837 15.3255 7.68818 15.9768 7.6875 16.6562V26.9062C7.6895 28.6047 8.36509 30.233 9.56606 31.4339C10.767 32.6349 12.3953 33.3105 14.0938 33.3125H24.3438C26.0422 33.3105 27.6705 32.6349 28.8714 31.4339C30.0724 30.233 30.748 28.6047 30.75 26.9062V25.625H31.3906C32.9198 25.625 34.3863 25.0176 35.4675 23.9363C36.5488 22.855 37.1562 21.3885 37.1562 19.8594C37.1562 18.3302 36.5488 16.8637 35.4675 15.7825C34.3863 14.7012 32.9198 14.0938 31.3906 14.0938ZM28.1875 26.9062C28.1864 27.9253 27.7811 28.9024 27.0605 29.623C26.3399 30.3436 25.3628 30.7489 24.3438 30.75H14.0938C13.0747 30.7489 12.0976 30.3436 11.377 29.623C10.6564 28.9024 10.2511 27.9253 10.25 26.9062V16.6562H28.1875V26.9062ZM31.3906 23.0625H30.75V16.6562H31.3906C32.2401 16.6562 33.0549 16.9937 33.6556 17.5944C34.2563 18.1951 34.5938 19.0099 34.5938 19.8594C34.5938 20.7089 34.2563 21.5236 33.6556 22.1243C33.0549 22.725 32.2401 23.0625 31.3906 23.0625Z" fill="black"/>
<path d="M24.3438 11.5312H21.7813V11.3442C21.783 10.868 21.6511 10.4009 21.4008 9.99581C21.1504 9.59075 20.7915 9.26397 20.3649 9.05254L16.9265 7.33336C16.0733 6.9102 15.3557 6.25648 14.855 5.44632C14.3543 4.63616 14.0906 3.70194 14.0938 2.74956V1.28125H16.6563V2.74956C16.6547 3.22572 16.7866 3.69279 17.037 4.09783C17.2873 4.50287 17.6461 4.82967 18.0727 5.04121L21.5111 6.76039C22.3642 7.1836 23.0818 7.83733 23.5825 8.64748C24.0831 9.45763 24.3469 10.3918 24.3438 11.3442V11.5312Z" fill="black"/>
</g>
<defs>
<clipPath id="clip0_13_215">
<rect width="41" height="41" fill="white"/>
</clipPath>
</defs>
</svg>
